name analog
datacolumns 19
datarows 54
range 0.1685 0.195
endheader
time	ground_force_vx	ground_force_vy	ground_force_vz	ground_force_px	ground_force_py	ground_force_pz	l_ground_force_vx	l_ground_force_vy	l_ground_force_vz	l_ground_force_px	l_ground_force_py	l_ground_force_pz	ground_torque_x	ground_torque_y	ground_torque_z	l_ground_torque_x	l_ground_torque_y	l_ground_torque_z
0.1685	-0.0	-0.0	-0.0	-11.760507583618164	0.9658730030059814	-52.97698974609375	11.088848114013672	-4.282981872558594	-444.8191528320313	-0.0	-0.0	-0.0	-0.0	-0.0	-0.0	151500.953125	-41139.00390625	4021.05419921875
0.169	-0.0	-0.0	-0.0	-11.463141441345217	1.6185210943222046	-52.501766204833984	10.454511642456056	-4.297755241394043	-446.3343811035156	-0.0	-0.0	-0.0	-0.0	-0.0	-0.0	151768.0	-41367.05859375	4118.9951171875
0.1695	-0.0	-0.0	-0.0	-11.00303554534912	0.8335076570510864	-48.67433547973633	10.77730655670166	-4.562587738037109	-448.4811096191406	-0.0	-0.0	-0.0	-0.0	-0.0	-0.0	152190.109375	-41270.64453125	4065.418212890625
0.17	-0.0	-0.0	-0.0	-10.839868545532228	0.9955530166625975	-47.79283905029297	10.336040496826172	-4.534666061401367	-448.94915771484375	-0.0	-0.0	-0.0	-0.0	-0.0	-0.0	152441.578125	-41266.5703125	3991.34375
0.1705	-0.0	-0.0	-0.0	-10.587665557861328	0.6978505849838257	-45.02642822265625	10.70346450805664	-4.562321186065674	-449.2379455566406	-0.0	-0.0	-0.0	-0.0	-0.0	-0.0	152477.234375	-41304.40234375	3933.292724609375
0.171	-0.0	-0.0	-0.0	-10.646577835083008	1.1739449501037598	-43.72450256347656	10.792061805725098	-4.857692718505859	-450.8753967285156	-0.0	-0.0	-0.0	-0.0	-0.0	-0.0	152945.453125	-41194.953125	4208.48486328125
0.1715	-0.0	-0.0	-0.0	-10.671743392944336	1.1433680057525637	-38.910526275634766	10.79190731048584	-5.310939311981201	-451.6809387207031	-0.0	-0.0	-0.0	-0.0	-0.0	-0.0	153059.96875	-41385.015625	4326.97412109375
0.17200000000000001	-0.0	-0.0	-0.0	-10.096195220947266	1.259986162185669	-36.39034652709961	11.000137329101562	-5.825136184692383	-452.1513671875	-0.0	-0.0	-0.0	-0.0	-0.0	-0.0	153582.375	-41654.015625	4461.123046875
0.17250000000000001	-0.0	-0.0	-0.0	-10.449514389038086	0.8485272526741028	-35.609947204589844	11.193086624145508	-5.725450038909912	-453.1552429199219	-0.0	-0.0	-0.0	-0.0	-0.0	-0.0	153965.375	-41440.8359375	4595.53759765625
0.17300000000000001	-0.0	-0.0	-0.0	-9.514439582824709	0.8757752776145935	-35.71669006347656	11.720510482788086	-5.9641618728637695	-455.9726867675781	-0.0	-0.0	-0.0	-0.0	-0.0	-0.0	154792.53125	-41643.64453125	4815.96875
0.17350000000000002	-0.0	-0.0	-0.0	-8.894278526306152	0.8868612051010132	-32.95172500610352	11.751520156860352	-5.7721147537231445	-458.8876953125	-0.0	-0.0	-0.0	-0.0	-0.0	-0.0	155133.359375	-42075.73828125	4945.06494140625
0.17400000000000002	-0.0	-0.0	-0.0	-8.506339073181152	0.6865379810333252	-31.82918357849121	11.902976989746094	-5.585583686828613	-459.15673828125	-0.0	-0.0	-0.0	-0.0	-0.0	-0.0	155896.046875	-41923.60546875	5187.73291015625
0.17450000000000002	-0.0	-0.0	-0.0	-8.412020683288574	0.4718614518642425	-28.379056930541992	12.112082481384276	-5.9018168449401855	-463.1376037597656	-0.0	-0.0	-0.0	-0.0	-0.0	-0.0	156925.53125	-42345.31640625	5371.02099609375
0.17500000000000002	-0.0	-0.0	-0.0	-8.060548782348633	0.544975757598877	-26.488494873046875	12.742629051208496	-6.166725158691406	-465.7682495117188	-0.0	-0.0	-0.0	-0.0	-0.0	-0.0	157816.6875	-42372.08203125	5509.09521484375
0.17550000000000002	-0.0	-0.0	-0.0	-7.509562015533447	0.1782608032226562	-25.34208106994629	13.13821029663086	-5.747804641723633	-468.7769470214844	-0.0	-0.0	-0.0	-0.0	-0.0	-0.0	158738.578125	-42714.9921875	5549.7294921875
0.176	-0.0	-0.0	-0.0	-7.363099575042725	0.46158367395401	-23.49926376342773	13.613443374633787	-6.030454158782959	-471.5778503417969	-0.0	-0.0	-0.0	-0.0	-0.0	-0.0	159619.78125	-42989.31640625	5700.74267578125
0.1765	-0.0	-0.0	-0.0	-6.59238338470459	-0.1462830454111099	-22.89333915710449	13.629335403442385	-5.900832176208496	-473.2901306152344	-0.0	-0.0	-0.0	-0.0	-0.0	-0.0	160694.71875	-43231.22265625	6111.05224609375
0.177	-0.0	-0.0	-0.0	-1.1417388916015625	-0.04819917678833	-3.692466735839844	13.967884063720703	-6.688286304473877	-478.845458984375	-0.0	-0.0	-0.0	-0.0	-0.0	-0.0	161672.21875	-43491.4140625	6100.1572265625
0.1775	-0.0	-0.0	-0.0	-0.0	-0.0	-0.0	14.209932327270508	-6.503534317016602	-479.16357421875	-0.0	-0.0	-0.0	-0.0	-0.0	-0.0	162412.5625	-43578.6328125	6367.3974609375
0.178	-0.0	-0.0	-0.0	-0.0	-0.0	-0.0	14.532301902770996	-6.672713279724121	-481.6721801757813	-0.0	-0.0	-0.0	-0.0	-0.0	-0.0	163251.25	-43951.0390625	6594.0576171875
0.1785	-0.0	-0.0	-0.0	-0.0	-0.0	-0.0	14.725990295410156	-6.65666389465332	-482.876708984375	-0.0	-0.0	-0.0	-0.0	-0.0	-0.0	163732.15625	-44099.0859375	6774.52685546875
0.179	-0.0	-0.0	-0.0	-0.0	-0.0	-0.0	15.346965789794922	-6.496459007263184	-485.32073974609375	-0.0	-0.0	-0.0	-0.0	-0.0	-0.0	164084.640625	-44396.1015625	6980.31396484375
0.1795	-0.0	-0.0	-0.0	-0.0	-0.0	-0.0	15.258255004882812	-6.535804748535156	-486.1737060546875	-0.0	-0.0	-0.0	-0.0	-0.0	-0.0	164747.53125	-44426.25	7009.90478515625
0.18	-0.0	-0.0	-0.0	-0.0	-0.0	-0.0	15.5965576171875	-6.535804748535156	-487.6997375488281	-0.0	-0.0	-0.0	-0.0	-0.0	-0.0	165239.765625	-44500.44140625	7212.2626953125
0.1805	-0.0	-0.0	-0.0	-0.0	-0.0	-0.0	15.662891387939451	-6.049751281738281	-487.5891418457031	-0.0	-0.0	-0.0	-0.0	-0.0	-0.0	165410.703125	-44744.31640625	7360.734375
0.181	-0.0	-0.0	-0.0	-0.0	-0.0	-0.0	16.056652069091797	-6.094196319580078	-490.1642761230469	-0.0	-0.0	-0.0	-0.0	-0.0	-0.0	166074.953125	-44936.2578125	7568.6259765625
0.1815	-0.0	-0.0	-0.0	-0.0	-0.0	-0.0	16.66594886779785	-5.8842363357543945	-489.3589782714844	-0.0	-0.0	-0.0	-0.0	-0.0	-0.0	166706.5625	-45051.80859375	7520.955078125
0.182	-0.0	-0.0	-0.0	-0.0	-0.0	-0.0	16.94375991821289	-5.189563274383545	-490.38873291015625	-0.0	-0.0	-0.0	-0.0	-0.0	-0.0	166838.390625	-45221.58203125	7724.9580078125
0.1825	-0.0	-0.0	-0.0	-0.0	-0.0	-0.0	17.332353591918945	-4.681049346923828	-491.6719055175781	-0.0	-0.0	-0.0	-0.0	-0.0	-0.0	167581.703125	-45396.3125	7783.11572265625
0.183	-0.0	-0.0	-0.0	-0.0	-0.0	-0.0	17.41712760925293	-3.7432262897491455	-494.6812133789063	-0.0	-0.0	-0.0	-0.0	-0.0	-0.0	168151.15625	-45751.00390625	7879.42333984375
0.1835	-0.0	-0.0	-0.0	-0.0	-0.0	-0.0	18.50653648376465	-3.532867431640625	-495.2453308105469	-0.0	-0.0	-0.0	-0.0	-0.0	-0.0	168665.21875	-45699.421875	8017.09375
0.184	-0.0	-0.0	-0.0	-0.0	-0.0	-0.0	18.38020896911621	-3.1795806884765625	-496.9099731445313	-0.0	-0.0	-0.0	-0.0	-0.0	-0.0	169309.65625	-45954.546875	8110.5478515625
0.1845	-0.0	-0.0	-0.0	-0.0	-0.0	-0.0	18.50324058532715	-3.390338897705078	-497.6759338378906	-0.0	-0.0	-0.0	-0.0	-0.0	-0.0	169956.453125	-46097.51953125	8127.76953125
0.185	-0.0	-0.0	-0.0	-0.0	-0.0	-0.0	19.09269142150879	-2.7379722595214844	-500.1205749511719	-0.0	-0.0	-0.0	-0.0	-0.0	-0.0	170684.515625	-46028.75	8038.54833984375
0.1855	-0.0	-0.0	-0.0	-0.0	-0.0	-0.0	18.754858016967773	-2.7551724910736084	-501.041748046875	-0.0	-0.0	-0.0	-0.0	-0.0	-0.0	171282.21875	-46036.00390625	8098.5888671875
0.186	-0.0	-0.0	-0.0	-0.0	-0.0	-0.0	18.76998519897461	-2.4557464122772217	-500.4025268554688	-0.0	-0.0	-0.0	-0.0	-0.0	-0.0	171936.703125	-45907.69921875	8105.21142578125
0.1865	-0.0	-0.0	-0.0	-0.0	-0.0	-0.0	18.843168258666992	-2.050386428833008	-502.0735168457031	-0.0	-0.0	-0.0	-0.0	-0.0	-0.0	172274.234375	-45939.69921875	8080.94482421875
0.187	-0.0	-0.0	-0.0	-0.0	-0.0	-0.0	18.912864685058597	-1.447927474975586	-504.106201171875	-0.0	-0.0	-0.0	-0.0	-0.0	-0.0	172994.4375	-46050.546875	7956.7451171875
0.1875	-0.0	-0.0	-0.0	-0.0	-0.0	-0.0	18.16816711425781	-1.1656489372253418	-506.9720764160156	-0.0	-0.0	-0.0	-0.0	-0.0	-0.0	173852.078125	-45823.09375	8004.31640625
0.188	-0.0	-0.0	-0.0	-0.0	-0.0	-0.0	17.93718910217285	-1.2183144092559814	-507.4559326171875	-0.0	-0.0	-0.0	-0.0	-0.0	-0.0	174396.578125	-45824.2421875	7861.419921875
0.1885	-0.0	-0.0	-0.0	-0.0	-0.0	-0.0	17.91920280456543	-1.2720563411712646	-511.1594543457031	-0.0	-0.0	-0.0	-0.0	-0.0	-0.0	175102.125	-45626.12109375	7730.97900390625
0.189	-0.0	-0.0	-0.0	-0.0	-0.0	-0.0	17.4937686920166	-1.006871461868286	-510.8786010742188	-0.0	-0.0	-0.0	-0.0	-0.0	-0.0	175324.859375	-45719.9140625	7647.71484375
0.1895	-0.0	-0.0	-0.0	-0.0	-0.0	-0.0	17.26300048828125	-1.4660226106643677	-510.3884582519531	-0.0	-0.0	-0.0	-0.0	-0.0	-0.0	175679.859375	-45290.73046875	7754.2197265625
0.19	-0.0	-0.0	-0.0	-0.0	-0.0	-0.0	17.262863159179688	-1.7670691013336182	-509.6935729980469	-0.0	-0.0	-0.0	-0.0	-0.0	-0.0	175682.5625	-45069.57421875	7795.54443359375
0.1905	-0.0	-0.0	-0.0	-0.0	-0.0	-0.0	16.767351150512695	-2.5266056060791016	-511.9229431152344	-0.0	-0.0	-0.0	-0.0	-0.0	-0.0	175185.1875	-44910.63671875	7741.93505859375
0.191	-0.0	-0.0	-0.0	-0.0	-0.0	-0.0	16.71233367919922	-2.3501315116882324	-508.9973449707031	-0.0	-0.0	-0.0	-0.0	-0.0	-0.0	175200.140625	-44611.79296875	7901.923828125
0.1915	-0.0	-0.0	-0.0	-0.0	-0.0	-0.0	17.048866271972656	-2.7019734382629395	-510.2528381347656	-0.0	-0.0	-0.0	-0.0	-0.0	-0.0	174995.640625	-44394.63671875	7931.7373046875
0.192	-0.0	-0.0	-0.0	-0.0	-0.0	-0.0	16.463916778564453	-2.9126100540161133	-508.6504211425781	-0.0	-0.0	-0.0	-0.0	-0.0	-0.0	174796.09375	-43985.7265625	7782.27392578125
0.1925	-0.0	-0.0	-0.0	-0.0	-0.0	-0.0	16.8686466217041	-3.3562240600585938	-507.8813781738281	-0.0	-0.0	-0.0	-0.0	-0.0	-0.0	174700.046875	-43965.05078125	7759.5458984375
0.193	-0.0	-0.0	-0.0	-0.0	-0.0	-0.0	16.834081649780273	-3.3562240600585938	-508.36474609375	-0.0	-0.0	-0.0	-0.0	-0.0	-0.0	174556.75	-43371.6171875	7794.42431640625
0.1935	-0.0	-0.0	-0.0	-0.0	-0.0	-0.0	16.533905029296875	-3.44750714302063	-507.8595581054688	-0.0	-0.0	-0.0	-0.0	-0.0	-0.0	174279.453125	-43504.65234375	7777.72412109375
0.194	-0.0	-0.0	-0.0	-0.0	-0.0	-0.0	16.552104949951172	-3.3045523166656494	-505.8612976074219	-0.0	-0.0	-0.0	-0.0	-0.0	-0.0	173876.15625	-43060.6875	7730.8466796875
0.1945	-0.0	-0.0	-0.0	-0.0	-0.0	-0.0	16.21928596496582	-3.216379880905152	-505.4842834472656	-0.0	-0.0	-0.0	-0.0	-0.0	-0.0	173634.34375	-42729.9609375	7593.58740234375
0.195	-0.0	-0.0	-0.0	-0.0	-0.0	-0.0	16.44061851501465	-3.249446392059326	-504.1593017578125	-0.0	-0.0	-0.0	-0.0	-0.0	-0.0	173321.890625	-42301.15625	7599.9921875
